<svg id="Capa_1" enable-background="new 0 0 507.805 507.805" height="512" viewBox="0 0 507.805 507.805" width="512" xmlns="http://www.w3.org/2000/svg"><g><g><path d="m337.236 470.81h8.966c19.291 0 34.929-15.638 34.929-34.929v-21.271c0-8.479-6.873-15.352-15.352-15.352h-66.314v33.782c0 20.86 16.911 37.77 37.771 37.77z" fill="#a5dbff"/><path d="m381.131 91.739v-28.145c0-9.823-7.963-17.786-17.786-17.786s-17.786 7.963-17.786 17.786v28.144c5.821-.759 11.758-1.151 17.786-1.151s11.965.392 17.786 1.152z" fill="#fff398"/><path d="m227.124 226.808c0 75.356 61.108 136.222 136.221 136.222 75.233 0 136.221-60.989 136.221-136.222 0-69.205-51.607-126.355-118.435-135.07-5.821-.759-11.758-1.151-17.786-1.151s-11.965.392-17.786 1.151c-16.471 2.148-32.017 7.238-46.094 14.726-43.038 22.893-72.341 68.196-72.341 120.344zm136.221-101.256c55.922 0 101.256 45.334 101.256 101.256s-45.334 101.256-101.256 101.256-101.256-45.334-101.256-101.256 45.334-101.256 101.256-101.256z" fill="#66e4d1"/><circle cx="363.345" cy="226.808" fill="#fff398" r="101.256"/></g><path d="m227.124 226.808c0-52.148 29.303-97.452 72.341-120.344v-44.082c0-14.021-11.366-25.386-25.386-25.386-2.713 0-8.031 0-10.807 0-13.977 0-25.308 11.331-25.308 25.308v32.447c0 11.731-9.51 21.241-21.241 21.241h-162.171v291.576c0 34.928 28.315 63.243 63.242 63.243h219.441c-20.86 0-37.771-16.911-37.771-37.771 0-30.402 0-55.515 0-85.887-43.037-22.893-72.34-68.196-72.34-120.345z" fill="#fff"/><path d="m237.964 94.751v-32.447c0-13.978 11.331-25.308 25.308-25.308-7.852 0-204.093 0-217.925 0-18.549 0-33.585 15.036-33.585 33.585v24.17c0 11.731 9.51 21.241 21.241 21.241h21.55 162.171c11.73-.001 21.24-9.51 21.24-21.241z" fill="#a5dbff"/><g><path d="m507.805 226.809c0-71.127-51.052-130.545-118.436-143.562v-19.652c0-15.322-12.465-27.787-27.786-27.787s-27.786 12.465-27.786 27.787v19.651c-8.938 1.724-17.671 4.277-26.094 7.615v-28.479c0-19.513-15.874-35.387-35.386-35.387-9.565 0-218.257 0-228.733 0-24.032 0-43.584 19.552-43.584 43.585v24.17c0 17.227 14.015 31.241 31.241 31.241h11.55v281.576c0 40.386 32.856 73.242 73.242 73.242h228.408c24.774 0 44.929-20.155 44.929-44.929v-21.27c0-13.979-11.373-25.353-25.352-25.353h-56.314v-26.516c95.51 37.989 200.101-32.735 200.101-135.932zm-154.007-146.014v-17.2c0-4.294 3.493-7.787 7.786-7.787s7.786 3.493 7.786 7.787v17.199c-4.662-.178-8.501-.368-15.572.001zm-333.798 13.955v-24.17c0-13.005 10.58-23.585 23.585-23.585h186.112c-4.514 13.539-3.307 4.465-3.494 47.755 0 6.194-5.067 11.241-11.241 11.241-6.224 0-174.373 0-183.721 0-6.199 0-11.241-5.043-11.241-11.241zm96.033 366.06c-29.358 0-53.242-23.885-53.242-53.242v-281.577h152.17c17.142 0 31.241-13.956 31.241-31.24v-.001-32.446c0-8.441 6.867-15.309 15.308-15.309h10.807c8.484 0 15.386 6.902 15.386 15.387v38.219c-8.456 4.959-16.737 11.015-24.142 17.705-6.946 6.28-2.169 17.828 7.161 17.408 4.752-.214 5.574-2.36 12.485-7.845 83.031-65.84 204.597-5.692 204.597 98.94 0 69.599-56.623 126.221-126.221 126.221-82.021 0-143.005-77.673-122.194-157.982 1.385-5.347-1.825-10.804-7.171-12.189-5.349-1.388-10.804 1.825-12.189 7.172-16.234 62.647 10.536 129.506 67.674 162.98 0 85.837-2.641 91.662 8.921 107.8h-180.591zm247.985-51.553c2.951 0 5.352 2.401 5.352 5.353v21.271c0 13.746-11.183 24.929-24.929 24.929-8.676-.01-10.404.107-13.19-.321-13.309-2.027-23.547-13.602-23.547-27.449v-23.783z"/><path d="m361.584 338.065c61.342 0 111.256-49.929 111.256-111.256 0-61.129-49.645-111.257-111.256-111.257-61.629 0-111.257 50.142-111.257 111.257 0 61.371 49.896 111.256 111.257 111.256zm-72.627-121.256h-18.079c1.936-17.679 8.941-33.853 19.527-47.037l12.753 12.753c3.906 3.905 10.237 3.905 14.142 0s3.906-10.237 0-14.143l-12.753-12.753c13.185-10.586 29.359-17.591 47.037-19.527v18.079c0 5.522 4.477 10 10 10s10-4.478 10-10v-18.079c17.678 1.936 33.852 8.94 47.036 19.527l-12.753 12.753c-3.905 3.905-3.905 10.237 0 14.143 3.906 3.905 10.237 3.904 14.142 0l12.753-12.753c10.586 13.185 17.591 29.358 19.527 47.037h-18.079c-5.523 0-10 4.478-10 10s4.477 10 10 10h18.079c-1.936 17.678-8.941 33.852-19.527 47.037l-12.753-12.753c-3.905-3.904-10.237-3.904-14.142 0-3.905 3.905-3.905 10.237 0 14.143l12.752 12.752c-13.185 10.586-29.358 17.591-47.037 19.527v-18.079c0-5.522-4.477-10-10-10s-10 4.478-10 10v18.079c-17.678-1.936-33.852-8.94-47.037-19.527l12.752-12.752c3.905-3.905 3.906-10.237 0-14.143-3.905-3.903-10.237-3.904-14.142 0l-12.753 12.753c-10.586-13.185-17.591-29.359-19.527-47.037h18.079c5.523 0 10-4.478 10-10s-4.475-10-9.997-10z"/><path d="m361.584 236.809h28.855c5.523 0 10-4.478 10-10s-4.477-10-10-10h-18.855v-31c0-5.522-4.477-10-10-10s-10 4.478-10 10v41c0 5.522 4.477 10 10 10z"/><path d="m88.141 181.767h90.606c5.523 0 10-4.478 10-10s-4.477-10-10-10h-90.606c-5.523 0-10 4.478-10 10s4.477 10 10 10z"/><path d="m88.141 239.738h90.606c5.523 0 10-4.478 10-10s-4.477-10-10-10h-90.606c-5.523 0-10 4.478-10 10s4.477 10 10 10z"/><path d="m88.141 297.708h110c5.523 0 10-4.478 10-10s-4.477-10-10-10h-110c-5.523 0-10 4.478-10 10s4.477 10 10 10z"/><path d="m88.141 355.679h127.485c5.523 0 10-4.478 10-10s-4.477-10-10-10h-127.485c-5.523 0-10 4.478-10 10s4.477 10 10 10z"/><path d="m251.726 393.65h-163.585c-5.523 0-10 4.478-10 10s4.477 10 10 10h163.584c5.523 0 10-4.478 10-10s-4.476-10-9.999-10z"/><path d="m245.658 165.209h.025c5.523 0 9.987-4.478 9.987-10s-4.489-10-10.012-10-10 4.478-10 10 4.477 10 10 10z"/></g></g></svg>